<?xml version="1.0" encoding="UTF-8"?>
<svg version="1.1" xmlns="http://www.w3.org/2000/svg" width="180" height="180">
<path d="M0 0 C59.4 0 118.8 0 180 0 C180 59.4 180 118.8 180 180 C120.6 180 61.2 180 0 180 C0 120.6 0 61.2 0 0 Z " fill="#FDCB00" transform="translate(0,0)"/>
<path d="M0 0 C22.44 0 44.88 0 68 0 C68 13.49726699 68 13.49726699 65.02734375 18.56640625 C64.38249023 19.69747803 63.73763672 20.8285498 63.07324219 21.99389648 C62.36160385 23.18359596 61.64968255 24.37312622 60.9375 25.5625 C60.20601069 26.82798143 59.47721639 28.09502408 58.75097656 29.36352539 C57.2547591 31.97086546 55.74640423 34.57054458 54.22802734 37.16503906 C50.80333801 43.03429588 47.53492727 48.98921112 44.25 54.9375 C43.02502081 57.14078138 41.79976427 59.34390858 40.57421875 61.546875 C35.32796888 71.00127788 30.1593437 80.49796849 25 90 C20.38 90 15.76 90 11 90 C21.02627978 71.12700276 31.16775164 52.32700139 41.734375 33.75 C45.84485189 26.51241389 49.91936886 19.25445535 54 12 C36.18 11.67 18.36 11.34 0 11 C0 7.37 0 3.74 0 0 Z " fill="#2D2C28" transform="translate(56,45)"/>
<path d="M0 0 C0.99 0 1.98 0 3 0 C3 1.98 3 3.96 3 6 C2.01 6.33 1.02 6.66 0 7 C-0.38133299 5.0085944 -0.71325582 3.00720923 -1 1 C-0.67 0.67 -0.34 0.34 0 0 Z " fill="#FADC00" transform="translate(88,87)"/>
</svg>
